<?xml version="1.0" standalone="no"?>
<!DOCTYPE svg PUBLIC "-//W3C//DTD SVG 20010904//EN"
 "http://www.w3.org/TR/2001/REC-SVG-20010904/DTD/svg10.dtd">
<svg version="1.0" xmlns="http://www.w3.org/2000/svg"
 width="1280.000000pt" height="1280.000000pt" viewBox="0 0 1280.000000 1280.000000"
 preserveAspectRatio="xMidYMid meet">
<metadata>
Created by potrace 1.14, written by Peter Selinger 2001-2017
</metadata>
<g transform="translate(0.000000,1280.000000) scale(0.100000,-0.100000)"
fill="#000000" stroke="none">
<path d="M7145 11419 c-111 -15 -171 -36 -205 -72 -35 -36 -66 -94 -168 -313
-38 -82 -103 -219 -145 -304 -41 -85 -121 -252 -177 -370 -197 -413 -479 -997
-615 -1275 -75 -154 -157 -323 -182 -375 -64 -135 -792 -1591 -930 -1860 -64
-124 -166 -322 -228 -440 -62 -118 -145 -278 -185 -355 -111 -214 -153 -289
-164 -297 -6 -4 -8 -8 -3 -8 4 0 -6 -24 -22 -52 -15 -29 -77 -143 -136 -253
-875 -1623 -1522 -2614 -1883 -2884 -75 -56 -156 -86 -207 -77 -18 4 -65 22
-103 41 -80 40 -185 144 -241 239 -72 122 -136 336 -163 550 -17 135 -17 643
0 801 67 612 198 1178 389 1675 95 249 178 406 302 575 57 78 111 191 111 232
0 47 -19 80 -55 98 -41 19 -76 19 -139 0 -139 -42 -822 -452 -983 -590 -184
-158 -404 -651 -547 -1230 -275 -1109 -257 -2242 44 -2872 152 -320 384 -538
645 -609 84 -22 240 -29 331 -15 471 77 1037 568 1660 1444 120 168 372 545
445 665 24 40 56 92 71 115 15 23 33 53 41 67 8 14 66 113 129 220 137 231
251 433 378 665 155 285 160 293 325 609 77 148 485 962 485 969 0 2 45 98
101 212 197 406 538 1144 804 1740 299 667 431 958 457 1005 65 115 126 178
161 164 31 -11 48 -84 101 -429 57 -369 99 -781 126 -1220 5 -93 12 -204 15
-245 8 -112 33 -867 40 -1175 29 -1332 38 -1516 110 -2390 36 -430 56 -596 77
-655 41 -113 120 -130 206 -43 24 25 95 123 157 217 111 170 203 326 374 641
59 107 192 347 256 460 146 257 370 697 547 1075 72 153 119 253 177 375 35
72 133 279 219 460 284 599 682 1384 778 1537 13 21 24 40 24 42 0 3 39 72
199 348 29 51 143 51 200 0 95 -84 155 -513 167 -1192 3 -173 7 -349 9 -390 2
-41 8 -646 14 -1345 11 -1304 15 -1590 27 -1637 11 -47 64 -98 112 -109 136
-30 405 117 818 447 169 135 172 138 179 183 11 69 -4 1289 -21 1756 -58 1620
-200 2807 -406 3375 -66 184 -164 337 -241 376 -45 24 -206 32 -432 22 -239
-11 -254 -16 -350 -121 -170 -186 -406 -591 -755 -1292 -197 -397 -279 -569
-425 -885 -64 -140 -81 -177 -172 -369 -29 -62 -53 -115 -53 -117 0 -8 -424
-926 -452 -978 l-15 -29 -6 44 c-4 24 -16 145 -27 269 -40 434 -76 828 -110
1180 -6 58 -26 274 -45 480 -19 206 -49 515 -65 685 -17 171 -39 405 -50 520
-37 380 -133 1312 -170 1640 -24 223 -58 477 -69 528 -23 101 -81 130 -266
133 -71 2 -161 -2 -200 -7z"/>
</g>
</svg>
