<svg xmlns="http://www.w3.org/2000/svg" version="1.1" xmlns:xlink="http://www.w3.org/1999/xlink" xmlns:svgjs="http://svgjs.dev/svgjs" viewBox="0 0 1422 800" opacity="0.54"><defs><linearGradient x1="50%" y1="0%" x2="50%" y2="100%" id="oooscillate-grad"><stop stop-color="rgb(239, 60, 210)" stop-opacity="1" offset="0%"></stop><stop stop-color="rgb(255, 230, 0)" stop-opacity="1" offset="100%"></stop></linearGradient></defs><g stroke-width="3" stroke="url(#oooscillate-grad)" fill="none" stroke-linecap="round"><path d="M 0 2250 Q 355.5 -100 711 400 Q 1066.5 900 1422 2250" stroke-dasharray="59 118" opacity="0.35"></path><path d="M 0 2125 Q 355.5 -100 711 400 Q 1066.5 900 1422 2125" stroke-dasharray="128 14" opacity="0.56"></path><path d="M 0 2000 Q 355.5 -100 711 400 Q 1066.5 900 1422 2000" stroke-dasharray="97 79" opacity="0.22"></path><path d="M 0 1875 Q 355.5 -100 711 400 Q 1066.5 900 1422 1875" stroke-dasharray="50 102" opacity="0.84"></path><path d="M 0 1750 Q 355.5 -100 711 400 Q 1066.5 900 1422 1750" stroke-dasharray="82 46" opacity="0.24"></path><path d="M 0 1625 Q 355.5 -100 711 400 Q 1066.5 900 1422 1625" stroke-dasharray="43 18" opacity="0.18"></path><path d="M 0 1500 Q 355.5 -100 711 400 Q 1066.5 900 1422 1500" stroke-dasharray="133 28" opacity="0.15"></path><path d="M 0 1375 Q 355.5 -100 711 400 Q 1066.5 900 1422 1375" stroke-dasharray="84 62" opacity="0.58"></path><path d="M 0 1250 Q 355.5 -100 711 400 Q 1066.5 900 1422 1250" stroke-dasharray="133 124" opacity="0.80"></path><path d="M 0 1125 Q 355.5 -100 711 400 Q 1066.5 900 1422 1125" stroke-dasharray="72 79" opacity="0.14"></path><path d="M 0 1000 Q 355.5 -100 711 400 Q 1066.5 900 1422 1000" stroke-dasharray="102 24" opacity="0.08"></path><path d="M 0 875 Q 355.5 -100 711 400 Q 1066.5 900 1422 875" stroke-dasharray="96 117" opacity="0.62"></path><path d="M 0 750 Q 355.5 -100 711 400 Q 1066.5 900 1422 750" stroke-dasharray="120 113" opacity="0.64"></path><path d="M 0 625 Q 355.5 -100 711 400 Q 1066.5 900 1422 625" stroke-dasharray="126 83" opacity="0.35"></path><path d="M 0 500 Q 355.5 -100 711 400 Q 1066.5 900 1422 500" stroke-dasharray="49 113" opacity="0.81"></path><path d="M 0 375 Q 355.5 -100 711 400 Q 1066.5 900 1422 375" stroke-dasharray="46 23" opacity="0.78"></path><path d="M 0 250 Q 355.5 -100 711 400 Q 1066.5 900 1422 250" stroke-dasharray="72 100" opacity="0.95"></path></g></svg>