<svg xmlns="http://www.w3.org/2000/svg" version="1.1" xmlns:xlink="http://www.w3.org/1999/xlink" xmlns:svgjs="http://svgjs.dev/svgjs" viewBox="0 0 800 800" opacity="0.38"><defs><linearGradient x1="50%" y1="0%" x2="50%" y2="100%" id="wwwhirl-grad"><stop stop-color="rgba(255, 230, 0, 0.22)" stop-opacity="1" offset="45%"></stop><stop stop-color="rgba(239, 60, 210, 0.76)" stop-opacity="1" offset="100%"></stop></linearGradient></defs><g stroke-width="3" stroke="url(#wwwhirl-grad)" fill="none" stroke-linecap="round"><path d="M-1062.9999974822995 587.7665817593064C-996.4999956373731 481.0340787981996 -929.9999937924467 176.7965703576615 -796.999990102594 160.83656991487916C-663.9999864127412 144.87656947209683 -663.9999864127415 502.97907940702527 -530.9999827228886 523.9265799881771C-397.99997903303586 544.874080569329 -397.99997903303586 231.65907187972576 -264.999975343183 244.6265722394864C-131.99997165333036 257.59407259924706 -131.99997165333025 547.8665806523506 1.000032036522498 575.7965814272196C134.00003572637524 603.7265822020887 134.00003572637524 343.3790749792021 267.00003941622776 356.3465753389627C400.0000431060805 369.3140756987233 400.00004310608074 618.6890826171971 533.0000467959333 627.6665828662622C666.000050485786 636.6440831153272 666.0000504857862 425.17407724846146 799.000054175639 392.2565763352229C932.0000578654917 359.3390754219844 932.0000578654913 524.9240800158509 1065.000061555344 495.996579213308C1198.0000652451972 467.06907841076503 1198.0000652451972 240.63657212879082 1331.00006893505 276.54657312505105C1464.0000726249027 312.4565741213113 1464.0000726249023 635.6465830876534 1597.0000763147555 639.636583198349C1730.0000800046082 643.6265833090446 1796.5000818495346 379.2890759754623 1863.0000836944605 292.50657356783336 " transform="rotate(99, 400, 400)"></path><path d="M-1029.7499977129153 583.4991655154315C-964.7613595462827 479.1924012579862 -899.7727213796501 181.8693816456421 -769.7954450463849 166.27210848565028C-639.8181687131198 150.67483532565848 -639.8181687131198 500.63865185297493 -509.8408923798546 521.1100728754642C-379.8636160465894 541.5814938979536 -379.8636160465894 235.48500813311398 -249.88633971332422 248.15779257560735C-119.90906338005914 260.8305770181007 -119.90906338005902 544.505982615452 10.068212953206057 571.8012106454377C140.04548928647114 599.0964386754233 140.04548928647114 344.66592025305675 270.02276561973645 357.33870469555006C400.0000419530015 370.01148913804343 400.0000419530015 613.7188822629156 529.9773182862668 622.492348415411C659.9545946195319 631.2658145679064 659.9545946195321 424.60194519801485 789.9318709527972 392.4325693055317C919.9091472860623 360.26319341304855 919.9091472860621 522.0849024479637 1049.8864236193272 493.81484484547855C1179.8636999525925 465.5447872429934 1179.8636999525925 244.2584742856094 1309.8409762858578 279.352338895591C1439.818252619123 314.4462035055726 1439.818252619123 630.2909849954069 1569.795528952388 634.190303285405C1699.7728052856532 638.0896215754028 1764.7614434522857 379.75978486303836 1829.7500816189186 294.94961205558286 " transform="rotate(96.75, 400, 400)"></path><path d="M-996.4999979435311 579.231741642162C-933.0227234551922 477.35071608837825 -869.5454489668534 186.9421853042282 -742.5908999901759 171.7076394270269C-615.6363510134981 156.4730935498256 -615.6363510134984 498.29821666953 -488.6818020368207 518.2935581333568C-361.7272530601431 538.2888995971834 -361.7272530601431 239.3109367571077 -234.77270408346544 251.68900528233377C-107.81815510678791 264.06707380755984 -107.81815510678769 541.1453769491587 19.136393869889844 567.8058322342611C146.09094284656726 594.4662875193633 146.09094284656726 345.9527578975169 273.0454918232449 358.3308264227429C400.00004079992254 370.70889494796904 400.0000407999228 608.7486742792396 526.9545897766002 617.3181063351653C653.9091387532778 625.887538391091 653.9091387532781 424.0298055181736 780.8636877299555 392.6085546464459C907.8182367066333 361.1873037747182 907.8182367066329 519.2457172506818 1034.7727856833108 491.6331028482544C1161.7273346599882 464.0204884458271 1161.7273346599882 247.88036881303344 1288.681883636666 282.1580970367364C1415.636432613344 316.4358252604394 1415.6364326133435 624.9353792737659 1542.5909815900209 628.7440157430663C1669.5455305666987 632.5526522123666 1733.0228050550372 380.2304861212199 1796.5000795433762 297.3926429139377 " transform="rotate(94.5, 400, 400)"></path><path d="M-963.2499981741469 574.9643292129844C-901.2840873641019 475.5090423628621 -839.3181765540568 192.0150004069061 -715.3863549339668 177.14318181249527C-591.4545333138767 162.27136321808447 -591.4545333138768 495.95779293017694 -467.52271169378673 515.477054835341C-343.59089007369664 534.9963167405053 -343.59089007369664 243.1368768251932 -219.65906845360655 255.22022943315199C-95.72724683351657 267.30358204111076 -95.72724683351646 537.7847827269572 28.20457478657363 563.8104652671761C152.1363964066636 589.8361478073952 152.1363964066636 347.2396069860689 276.0682180267536 359.3229595940277C400.00003964684356 371.40631220198645 400.0000396468438 603.7784777396553 523.9318612669338 612.1438756990113C647.8636828870237 620.5092736583674 647.863682887024 423.45767728242424 771.795504507114 392.784551431452C895.7273261272042 362.11142558047965 895.7273261272035 516.4065434974918 1019.6591477472939 489.4513722951222C1143.5909693673839 462.4962010927526 1143.5909693673839 251.5022747845493 1267.5227909874743 284.96386662197364C1391.4546126075643 318.42545845939793 1391.4546126075638 619.5797849962167 1515.3864342276543 623.2977396448194C1639.3182558477442 627.0156942934221 1701.2841666577892 380.7011988234932 1763.2500774678342 299.83568521638443 " transform="rotate(92.25, 400, 400)"></path><path d="M-929.9999984047627 570.6969015250176C-869.5454512730114 473.6673533785568 -809.0909041412601 197.08780025079488 -688.1818098777577 182.5787089391746C-567.2727156142553 168.0696176275543 -567.2727156142553 493.6173539320347 -446.36362135075274 512.6605362785364C-325.4545270872503 531.703718625038 -325.4545270872503 246.96280163448967 -204.54543282374777 258.75143832518114C-83.63633856024535 270.5400750158727 -83.63633856024512 534.4241732459668 37.27275570325719 559.8150830413024C158.18184996675973 585.205992836638 158.18184996675973 348.52644081583173 279.09094423026204 360.31507750652327C400.0000384937646 372.10371419721474 400.0000384937648 598.8082659412819 520.9091327572673 606.9696298040683C641.8182270207697 615.1309936668547 641.8182270207699 422.8855337878858 762.7273212842722 392.9605329576689C883.6364155477747 363.03553212745203 883.6364155477745 513.5673544855126 1004.545509811277 487.26962648320085C1125.4546040747796 460.9718984808891 1125.4546040747796 255.12416549727607 1246.3636983382821 287.7696209484218C1367.2727926017847 320.4150763995674 1367.2727926017847 614.2241754598784 1488.1818868652872 617.8514482877836C1609.0909811287897 621.4787211156886 1669.5455282605408 381.17189626697746 1730.0000753922918 302.2787122600421 " transform="rotate(90, 400, 400)"></path><path d="M-896.7499986353785 566.4294738370509C-837.806815181921 471.8256643942516 -778.8636317284636 202.16060009468373 -660.9772648215486 188.01423606585394C-543.0908979146336 173.86787203702414 -543.0908979146338 491.27691493389256 -425.20453100771874 509.84401772173163C-307.31816410080387 528.4111205095708 -307.31816410080387 250.78872644378612 -189.43179719388888 262.28264721721035C-71.54543028697401 273.77656799063453 -71.5454302869739 531.0635637649764 46.340936619940976 555.8197008154284C164.22730352685585 580.5758378658807 164.22730352685585 349.8132746455947 282.1136704337707 361.30719541901885C400.0000373406856 372.80111619244303 400.0000373406858 593.8380541429085 517.8864042476005 601.7953839091253C635.7727711545156 609.7527136753421 635.7727711545158 422.3133902933473 753.6591380614304 393.1365144838859C871.5455049683455 363.95963867442447 871.5455049683453 510.7281654735336 989.4318718752602 485.08788067127955C1107.3182387821753 459.4475958690255 1107.3182387821753 258.74605621000285 1225.2046056890904 290.5753752748699C1343.0909725960055 322.4046943397369 1343.090972596005 608.8685659235402 1460.9773395029197 612.4051569307476C1578.8637064098352 615.9417479379551 1637.8068898632923 381.6425937104617 1696.7500733167499 304.7217393036997 " transform="rotate(87.75, 400, 400)"></path><path d="M-863.4999988659943 562.1620423343868C-806.0681790908305 469.9839715952491 -748.6363593156668 207.23339612387525 -633.7727197653396 193.449759377836C-518.9090802150122 179.66612263179672 -518.9090802150122 488.9364721210531 -404.04544066468486 507.0274953502297C-289.1818011143574 525.1185185794063 -289.1818011143574 254.6146474383853 -174.3181615640301 265.81385229454224C-59.454522013702785 277.0130571506991 -59.45452201370267 527.7029504692886 55.40911753662465 551.8243147748574C170.27275708695197 575.9456790804261 170.27275708695197 351.10010466066024 285.1363966372792 362.2993095168172C400.0000361876066 373.4985143729741 400.0000361876066 588.8678385298379 514.863675737934 596.6211341994849C629.7273152882613 604.3744298691322 629.7273152882617 421.74124298411164 744.5909548385889 393.3124921954056C859.4545943889161 364.8837414066996 859.4545943889159 507.8889726468571 974.3182339392433 482.9061310446609C1089.181873489571 457.92328944246475 1089.181873489571 262.3679431080324 1204.0455130398982 293.38112578662077C1318.9091525902259 324.3943084652092 1318.9091525902254 603.5129525725047 1433.772792140553 606.9588617590144C1548.6364316908803 610.4047709455243 1606.0682514660443 382.1132873392487 1663.5000712412075 307.16476253266006 " transform="rotate(85.5, 400, 400)"></path><path d="M-830.24999909661 557.8946299052091C-774.3295429997402 468.1422978697329 -718.4090869028703 212.30621122655316 -606.5681747091305 198.88530176330437C-494.72726251539063 185.4643923000556 -494.72726251539075 486.5960483817 -382.886350321651 504.210992052214C-271.0454381279111 521.825935722728 -271.0454381279111 258.4405875064708 -159.20452593417122 269.3450764453604C-47.36361374043156 280.2495653842501 -47.36361374043133 524.3423562470872 64.47729845330844 547.8289478077725C176.3182106470481 571.3155393684578 176.3182106470481 352.38695374921224 288.15912284078786 363.2914426881018C400.0000350345276 374.1959316269915 400.00003503452785 583.8976419902536 511.8409472282676 591.446903563331C623.6818594220072 598.9961651364085 623.6818594220076 421.1691147483622 735.5227716157472 393.4884889804116C847.3636838094872 365.80786321246103 847.3636838094867 505.049798893667 959.2045960032267 480.7244004915286C1071.0455081969665 456.39900208939025 1071.0455081969665 265.98984907954826 1182.8864203907065 296.186895371858C1294.7273325844462 326.38394166416776 1294.7273325844462 598.1573582949554 1406.568244778186 601.5125856607676C1518.4091569719258 604.8678130265798 1574.3296130687954 382.58400004152196 1630.2500691656655 309.6078048351068 " transform="rotate(83.25, 400, 400)"></path><path d="M-796.9999993272259 553.6272060319396C-742.5909069086497 466.300612700125 -688.1818144900736 217.37901488513924 -579.3636296529214 204.32083270468098C-470.5454448157691 191.2626505242227 -470.5454448157692 484.2556131982551 -361.7272599786169 501.3944773101066C-252.90907514146477 518.5333414219581 -252.90907514146477 262.26651613046454 -144.09089030431244 272.8762891520869C-35.27270546716022 283.48606217370923 -35.27270546716011 520.9817505807939 73.54547936999211 543.833569396596C182.3636642071442 566.6853882123979 182.3636642071442 353.67379139367245 291.18184904429654 364.28356441529473C400.00003388144864 374.89333743691714 400.00003388144887 578.9274340065775 508.818218718601 586.2726614830854C617.6364035557531 593.6178889595931 617.6364035557533 420.59697506852103 726.4545883929054 393.6644743213259C835.272773230058 366.7319735741307 835.2727732300575 502.2106136963852 944.0909580672098 478.5426584943046C1052.9091429043622 454.874703292224 1052.9091429043622 269.6117436069723 1161.7273277415147 298.9926535130034C1270.545512578667 328.3735634190345 1270.5455125786666 592.8017525733144 1379.363697415819 596.0662981184289C1488.1818822529713 599.3308436635436 1542.590974671547 383.05470129970354 1597.0000670901231 312.0508356934617 " transform="rotate(81, 400, 400)"></path><path d="M-763.7499995578416 549.359778343973C-710.8522708175593 464.45892371581976 -657.954542077277 222.45181472902806 -552.1590845967123 209.7563598313603C-446.3636271161476 197.06090493369254 -446.36362711614765 481.91517420011286 -340.568169635583 498.5779587533018C-234.77271215501833 515.2407433064908 -234.77271215501833 266.092440939761 -128.97725467445366 276.40749804411604C-23.181797193888997 286.7225551484711 -23.18179719388877 517.6211410998035 82.61366028667578 539.838187170722C188.40911776724045 562.0552332416407 188.40911776724045 354.9606252234353 294.204575247805 365.2756823277904C400.00003272836966 375.5907394321454 400.00003272836966 573.9572222082041 505.79549020893455 581.0984155881422C611.590947689499 588.2396089680803 611.5909476894992 420.02483157398257 717.3864051700639 393.8404558475428C823.1818626506285 367.65608012110306 823.1818626506281 499.37142468440607 928.977320131193 476.3609126823833C1034.7727776117579 453.3504006803604 1034.7727776117579 273.2336343196991 1140.5682350923225 301.79840783945156C1246.3636925728874 330.363181359204 1246.363692572887 587.4461430369761 1352.1591500534519 590.6200067613931C1457.9546075340163 593.79387048581 1510.852336274299 383.52539874318774 1563.7500650145812 314.49386273711934 " transform="rotate(78.75, 400, 400)"></path><path d="M-730.4999997884574 545.0923659147952C-679.113634726469 462.61724999030355 -627.7272696644803 227.52462983170594 -524.9545395405032 215.19190221682868C-422.1818094165261 202.85917460195142 -422.18180941652616 479.5747504607598 -319.40907929254905 495.7614554552862C-216.63634916857188 511.94816044981263 -216.63634916857188 269.9183810078465 -113.86361904459477 279.93872219493426C-11.090888920617658 289.959063382022 -11.090888920617544 514.2605468776021 91.68184120335945 535.8428202036373C194.45457132733657 557.4250935296725 194.45457132733657 356.2474743119873 297.2273014513137 366.267815499075C400.0000315752907 376.2881566861628 400.0000315752909 568.9870256686199 502.7727616992679 575.9241849519883C605.5454918232449 582.8613442353568 605.5454918232451 419.45270333823316 708.3182219472221 394.01645263254886C811.0909520711994 368.58020192686456 811.0909520711991 496.532250931216 913.8636821951764 474.179182129251C1016.6364123191536 451.82611332728595 1016.6364123191536 276.85554029121494 1119.4091424431308 304.60417742468877C1222.181872567108 332.3528145581626 1222.1818725671076 582.0905487594271 1324.9546026910848 585.1737306631462C1427.7273328150623 588.2569125668656 1479.1136978770505 383.9961114454611 1530.5000629390388 316.936905039566 " transform="rotate(76.5, 400, 400)"></path><path d="M-697.2500000190732 540.8249344121311C-647.3749986353785 460.7755571913011 -597.4999972516837 232.5974258608975 -497.7499944842941 220.62742552881076C-397.9999917169046 208.657425196724 -397.9999917169047 477.23430764792033 -298.24998894951506 492.9449330837842C-198.49998618212555 508.6555585196481 -198.49998618212555 273.7443020024457 -98.74998341473588 283.46992727226615C1.0000193526535668 293.1955525420866 1.0000193526536805 510.8999335819143 100.75002212004324 531.8474341630662C200.5000248874327 552.7949347442179 200.5000248874327 357.5343043270529 300.25002765482213 367.25992959687335C400.0000304222117 376.98555486669386 400.0000304222119 564.0168100555493 499.75003318960125 570.7499352423481C599.5000359569908 577.4830604291468 599.500035956991 418.8805560289975 699.2500387243806 394.19243034406855C799.0000414917702 369.5043046591396 799.0000414917699 493.69305810453966 898.7500442591595 471.99743250263236C998.500047026549 450.3018069007252 998.500047026549 280.47742718924445 1098.2500497939388 307.40992793643966C1198.0000525613284 334.3424286836348 1198.0000525613282 576.7349354083914 1297.7500553287177 579.7274354914131C1397.5000580961078 582.7199355744348 1447.375059479802 384.46680507424804 1497.2500608634969 319.3799282685264 " transform="rotate(74.25, 400, 400)"></path><path d="M-664.000000249689 536.5575067241645C-615.6363625442881 458.93386820699584 -567.272724838887 237.6702257047863 -470.5454494280851 226.06295265549008C-373.81817401728307 214.45567960619383 -373.8181740172831 474.8938686497782 -277.0908986064811 490.1284145269795C-180.3636231956791 505.36296040418085 -180.3636231956791 277.57022681174215 -83.6363477848771 287.0011361642953C13.090927625924792 296.4320455168485 13.09092762592502 507.53932410092386 109.81820303672691 527.8520519371923C206.54547844752892 548.1647797734607 206.54547844752892 358.8211381568158 303.2727538583308 368.252047509369C400.0000292691327 377.6829568619222 400.0000292691327 559.0465982571759 496.72730467993483 565.575689347405C593.4545800907367 572.1047804376342 593.454580090737 418.308412534459 690.1818555015388 394.3684118702855C786.9091309123407 370.42841120611206 786.9091309123405 490.8538690925605 883.6364063231426 469.8156866907111C980.363681733945 448.7775042888617 980.363681733945 284.0993179019713 1077.0909571447469 310.2156822628878C1173.818232555549 336.33204662380433 1173.8182325555485 571.3793258720532 1270.545507966351 574.2811441343772C1367.2727833771528 577.1829623967013 1415.6364210825536 384.93750251773236 1464.0000587879545 321.82295531218404 " transform="rotate(72, 400, 400)"></path><path d="M-630.7500004803048 532.290082850895C-583.8977264531976 457.0921830373878 -537.0454524260904 242.7430293633724 -443.340904371876 231.49848359686666C-349.6363563176615 220.25393783036094 -349.63635631766164 472.5534334663332 -255.93180826344718 487.311899784872C-162.22726020923278 502.0703661034108 -162.22726020923278 281.39615543573586 -68.52271215501833 290.5323488710217C25.18183589919613 299.66854230630764 25.181835899196244 504.17871843463064 118.88638395341059 523.8566735260156C212.59093200762504 543.5346286174007 212.59093200762504 360.107975801276 306.2954800618394 369.24416923656185C400.0000281160537 378.38036267184776 400.00002811605395 554.0763902734998 493.7045761702682 560.4014472671593C587.4091242244826 566.7265042608187 587.4091242244829 417.7362728546178 681.1136722786971 394.5443972111998C774.8182203329118 371.35252156778165 774.8182203329113 488.0146838952786 868.522768387126 467.633944693487C962.2273164413405 447.2532054916954 962.2273164413405 287.72121242939534 1055.931864495555 313.0214404040332C1149.6364125497696 338.3216683786711 1149.6364125497691 566.0237201504121 1243.3409606039836 568.8348565920386C1337.0455086581983 571.645993033665 1383.8977826853052 385.4082037759139 1430.7500567124125 324.26598617053895 " transform="rotate(69.75, 400, 400)"></path><path d="M-597.5000617460769 528.0226704217173C-552.1591513972635 455.2505093118717 -506.81824104845 247.8158444660503 -416.1364203508232 236.93402598233504C-325.4545996531963 226.05220749861982 -325.45459965319634 470.2130097269802 -234.7727789555695 484.4953964868564C-144.0909582579426 498.7777832467326 -144.0909582579426 285.2220955038214 -53.409137560315685 294.06357302184C37.272683137311105 302.9050505398586 37.27268313731133 500.81812421242927 127.95450383493812 519.8613065589309C218.6363245325648 538.9044889054326 218.6363245325648 361.39482488982793 309.3181452301917 370.23630240784655C399.9999659278187 379.0777799258651 399.9999659278187 549.1061937339156 490.6817866254455 555.2272166310054C581.3636073230723 561.3482395280952 581.3636073230725 417.1641446188685 672.0454280206993 394.7203939962058C762.7272487183261 372.27664337354315 762.7272487183259 485.17551014208857 853.4090694159529 465.4522141403547C944.0908901135797 445.7289181386209 944.0908901135797 291.3431184009112 1034.772710811207 315.82720998927044C1125.4545315088337 340.3113015776297 1125.4545315088335 560.6681258728629 1216.1363522064603 563.3885804937918C1306.8181729040875 566.1090351147205 1352.1590832529007 385.8789164781872 1397.4999936017139 326.70902847298566 " transform="rotate(67.5, 400, 400)"></path><path d="M-564.2500619766927 523.7552541778423C-520.420515306173 453.40883177165824 -476.5909686356534 252.88865575403088 -388.9318752946141 242.36956455310616C-301.27278195357474 231.85047335218147 -301.27278195357485 467.87258217292975 -213.6136886125355 481.67888937414347C-125.95459527149615 495.4851965753571 -125.95459527149615 289.0480317572096 -38.29550193045691 297.59479335796095C49.363591410582444 306.1415549587123 49.36359141058256 497.4575261755306 137.0226847516218 515.8659357771487C224.68177809266115 534.2743453787671 224.68177809266115 362.6816701636826 312.3408714337003 371.22843176443394C399.9999647747395 379.77519336518526 399.9999647747395 544.135993379634 487.6590581157791 550.0529821801541C575.3181514568182 555.9699709806744 575.3181514568184 416.59201256842175 662.9772447978576 394.89638696651457C750.6363381388971 373.20076136460733 750.6363381388967 482.33633257420126 838.295431479936 463.27047977252516C925.9545248209756 444.2046269708492 925.9545248209756 294.96502055772976 1013.6136181620147 318.6329757598104C1101.2727115030543 342.30093096189097 1101.2727115030539 555.3125277806164 1188.9318048440934 557.9423005808476C1276.5908981851326 560.5720733810788 1320.4204448556525 386.34962536576325 1364.249991526172 329.15206696073506 " transform="rotate(65.25, 400, 400)"></path><path d="M-531.0000622073085 519.4878264898755C-488.68187921508263 451.5671427873531 -446.36369622285673 257.9614555979197 -361.727330238405 247.8050916797855C-277.09096425395325 237.6487277616513 -277.0909642539533 465.5321431747876 -192.45459826950156 478.86237081733873C-107.81823228504982 492.19259845988984 -107.81823228504982 292.873956566506 -23.181866300598017 301.1260022499901C61.45449968385367 309.37804793347414 61.45449968385378 494.09691669454 146.09086566830547 511.8705535512749C230.72723165275715 529.6441904080098 230.72723165275715 363.9685039934455 315.36359763720884 372.2205496769295C399.9999636216605 380.4725953604136 399.99996362166075 539.1657815812605 484.63632960611244 544.8787362852111C569.2726955905641 550.5916909891616 569.2726955905644 416.01986907388334 653.909061575016 395.0723684927315C738.5454275594677 374.1248679115797 738.5454275594675 479.4971435622221 823.1817935439192 461.08873396060386C907.8181595283711 442.68032435898556 907.8181595283711 298.58691127045654 992.454525512823 321.4387300862585C1077.090891497275 344.29054890206044 1077.0908914972745 549.9569182442782 1161.7272574817264 552.4960092238117C1246.3636234661783 555.0351002033453 1288.681806458404 386.8203228092475 1330.9999894506298 331.5950940043927 " transform="rotate(63, 400, 400)"></path><path d="M-497.75006243792427 515.2203988019088C-456.9432431239922 449.7254538030478 -416.1364238100601 263.0342554418085 -334.5227851821959 253.24061880646482C-252.90914655433176 243.44698217112114 -252.9091465543318 463.19170417664543 -171.29550792646762 476.04585226053405C-89.68186929860343 488.9000003444226 -89.68186929860343 296.6998813758025 -8.06823067073924 304.65721114201926C73.5454079571249 312.614540908236 73.54540795712512 490.7363072135496 155.15904658498914 507.8751713254011C236.77268521285328 525.0140354372525 236.77268521285328 365.2553378232084 318.3863238407174 373.21266758942517C399.99996246858166 381.16999735564195 399.99996246858177 534.1955697828872 481.6136010964458 539.7044903902681C563.22723972431 545.2134109976489 563.22723972431 415.4477255793449 644.8408783521743 395.2483500189485C726.4545169800385 375.04897445855215 726.4545169800381 476.657954550243 808.0681556079026 458.90698814868256C889.6817942357668 441.15602174712205 889.6817942357668 302.2088019831833 971.2954328636313 324.24448441270664C1052.9090714914953 346.28016684222996 1052.909071491495 544.6013087079399 1134.5227101193593 547.0497178667758C1216.1363487472238 549.4981270256118 1256.9431680611556 387.29102025273176 1297.7499873750876 334.03812104805036 " transform="rotate(60.75, 400, 400)"></path><path d="M-464.50006266854007 510.9529863727311C-425.2046070329018 447.8837800775317 -385.9091513972635 268.1070705444864 -307.31824012598685 258.6761611919332C-228.7273288547102 249.24525183938002 -228.72732885471027 460.8512804372923 -150.13641758343363 473.2293489625183C-71.54550631215699 485.60741748774444 -71.54550631215699 300.525821443888 7.045404959119651 308.1884352928375C85.63631623039623 315.851049141787 85.63631623039635 487.3757129913481 164.22722750167281 503.8798043583163C242.8181387729494 520.3838957252843 242.8181387729494 366.5421869117604 321.4090500442261 374.2048007607098C399.99996131550256 381.8674146096593 399.9999613155027 529.225373243303 478.59087258677937 534.5302597541141C557.181783858056 539.8351462649252 557.181783858056 414.8755973435955 635.7726951293325 395.42434680395456C714.3636064006091 375.97309626431354 714.3636064006091 473.8187807970529 792.9545176718857 456.72525759555026C871.5454289431623 439.6317343940476 871.5454289431623 305.83070795469916 950.1363402144391 327.05025399794386C1028.727251485716 348.26980004118855 1028.7272514857157 539.2457144303908 1107.3181627569925 541.6034417685289C1185.9090740282688 543.9611691066673 1225.2045296639074 387.7617329550051 1264.4999852995454 336.48116335049707 " transform="rotate(58.5, 400, 400)"></path><path d="M-431.25006289915586 506.68556249946164C-393.46597094181135 446.0420949079237 -355.68187898446683 273.1798742030725 -280.11369506977775 264.1116921333098C-204.54551115508866 255.04351006354713 -204.54551115508878 458.5108452538474 -128.9773272403997 470.4128342204109C-53.4091433257106 482.3148231869744 -53.4091433257106 304.3517500678817 22.15904058897854 311.7196479995639C97.72722450366746 319.0875459312461 97.72722450366757 484.01510732505494 173.2954084183566 499.8844259471397C248.86359233304563 515.7537445692244 248.86359233304563 367.82902455622053 324.43177624773466 375.1969224879027C399.9999601624236 382.5648204195849 399.9999601624238 524.2551652596269 475.56814407711283 529.3560176738683C551.1363279918019 534.4568700881099 551.1363279918019 414.30345766375433 626.704511906491 395.60033214486873C702.2726958211802 376.89720662598324 702.2726958211797 470.9795955997711 777.8408797358688 454.5435155983262C853.409063650558 438.1074355968814 853.409063650558 309.4526024821232 928.9772475652474 329.8560121390893C1004.5454314799365 350.25942179605534 1004.545431479936 533.8901087087497 1080.1136153946252 536.1571542261904C1155.6817993093143 538.4241997436311 1193.465891266659 388.2324342131866 1231.2499832240032 338.924194208852 " transform="rotate(56.25, 400, 400)"></path><path d="M-398.00006312977166 502.4181462555867C-361.7273348507209 444.2004173677102 -325.4546065716702 278.2526854910531 -252.90915001356868 269.5472307040809C-180.36369345546717 260.84177591710875 -180.36369345546723 456.170417699797 -107.81823689736575 467.596327107698C-35.272780339264216 479.022236515599 -35.272780339264216 308.17768632126996 37.27267621883732 315.25086833568486C109.81813277693868 322.32405035009975 109.81813277693891 480.65450928815625 182.36358933504027 495.88905516535755C254.90904589314175 511.1236010425589 254.90904589314175 369.1158698300752 327.45450245124323 376.1890518444901C399.9999590093447 383.262233858905 399.9999590093448 519.2849649053453 472.5454155674462 524.1817832230172C545.0908721255477 529.078601540689 545.0908721255478 413.7313256133076 617.6363286836495 395.77632511517754C690.1817852417507 377.82132461704737 690.1817852417505 468.14041803188377 762.7272417998522 452.36178123049666C835.2726983579537 436.5831444291096 835.2726983579537 313.07450463894185 907.8181549160554 332.6617779096292C980.3636114741569 352.24905118031666 980.3636114741566 528.5345106165032 1052.9090680322581 530.7108743132462C1125.4545245903598 532.8872380099892 1161.7272528694102 388.70314310076265 1197.999981148461 341.3672326966014 " transform="rotate(54, 400, 400)"></path><path d="M-364.75006336038746 498.1507109382254C-329.9886987596305 442.3587207540105 -295.22733415887353 283.3254777055474 -225.7046049573596 274.9827502013657C-156.18187575584568 266.64002269718407 -156.18187575584568 453.82997107226026 -86.65914655433176 464.77980092149875C-17.13641735281783 475.72963077073723 -17.13641735281783 312.0036035011719 52.386311848696096 318.7820695983195C121.90904105021002 325.56053569546714 121.90904105021013 477.2938921777712 191.43177025172395 491.8936653100892C260.9544994532379 506.49343844240707 260.9544994532379 370.40269603044356 330.4772286547518 377.18116212759116C399.9999578562656 383.9596282247388 399.9999578562657 514.3147454775774 469.52268705777976 519.0075296986796C539.0454162592936 523.7003139197818 539.0454162592937 413.15917448937466 608.5681454608075 395.95229901199997C678.0908746623215 378.7454235346253 678.0908746623213 465.30122139051014 747.6136038638354 450.1800277891808C817.1363330653494 435.0588341878515 817.1363330653494 316.6963877222741 886.6590622668632 335.46752460668284C956.1817914683772 354.2386614910916 956.1817914683772 523.1788934507704 1025.704520669891 525.2645753268159C1095.227249871405 527.3502572028613 1129.9886144721622 389.17383291485237 1164.749979072919 343.8102521108645 " transform="rotate(51.75, 400, 400)"></path><path d="M-331.50006359100325 493.8832908796532C-298.25006266854007 440.51703939909976 -265.0000617460769 288.39828517883075 -198.5000599011505 280.4182849574396C-132.00005805622413 272.43828473604844 -132.00005805622425 451.4895397035126 -65.50005621129782 461.96328999408854C0.9999456336285562 472.4370402846645 0.9999456336285562 315.82953593986286 67.49994747855499 322.31328611974317C133.99994932348136 328.7970362996235 133.99994932348136 473.9332903261753 200.49995116840773 487.8982907136098C266.9999530133341 501.86329110104435 266.9999530133341 371.68953748960104 333.49995485826037 378.17328766948134C399.99995670318674 384.65703784936164 399.99995670318685 509.34454130859854 466.4999585481131 513.8332914331311C532.9999603930395 518.3220415576636 532.9999603930396 412.58703862423073 599.499962237966 396.12828816761146C665.9999640828923 379.6695377109922 665.9999640828921 462.46204000792545 732.4999659278185 447.998289606654C798.9999677727451 433.53453920538254 798.9999677727451 320.3182860643954 865.4999696176715 338.2732865625255C931.9999714625978 356.22828706065565 931.9999714625976 517.8232915438267 998.4999733075242 519.8182915991745C1064.9999751524506 521.8132916545223 1098.2499760749138 389.64453798773116 1131.4999769973767 346.2532867839167 " transform="rotate(49.5, 400, 400)"></path><path d="M-298.25006382161905 489.61586319168646C-266.51142657744964 438.6753504147946 -234.77278933328023 293.47108502271954 -171.29551484494147 285.8538120841189C-107.81824035660259 278.23653914551824 -107.8182403566027 449.1491007053705 -44.34096586826388 459.14677143728386C19.136308620074942 469.1444421691972 19.136308620074942 319.6554607491593 82.61358310841376 325.8444950117723C146.09085759675253 332.0335292743854 146.09085759675264 470.57268084518483 209.5681320850914 483.902908487736C273.0454065734301 497.2331361302871 273.0454065734301 372.9763713193639 336.52268106176894 379.1654055819769C399.99995555010776 385.35443984459 399.99995555010787 504.37432951022527 463.4772300384466 508.65904553818814C526.9545045267854 512.9437615661509 526.9545045267855 412.01489512969226 590.4317790151242 396.3042696938284C653.9090535034632 380.59364425796457 653.9090535034629 459.62285099594635 717.3863279918019 445.81654379473264C780.8636024801406 432.01023659351904 780.8636024801406 323.9401767771222 844.3408769684795 341.0790408889737C907.8181514568184 358.21790500082517 907.8181514568182 512.4676820074884 971.2954259451569 514.3720002421386C1034.7727004334959 516.2763184767888 1066.511337677665 390.1152354312154 1098.2499749218346 348.69631382757433 " transform="rotate(47.25, 400, 400)"></path><path d="M-265.00006405223485 485.3484469478115C-234.7727904863592 436.8336728745811 -204.5455169204836 298.5438963107002 -144.09096978873237 291.28935065489003C-83.63642265698113 284.0348049990799 -83.63642265698115 446.8086731513201 -23.181875525229884 456.3302643245709C37.27267160652133 465.85185549782176 37.27267160652133 323.48139700254757 97.7272187382726 329.37571534789333C158.1817658700238 335.27003369323904 158.18176587002392 467.21208280828614 218.63631300177508 479.9075377059539C279.09086013352635 492.6029926036217 279.09086013352635 374.2632165932186 339.5454072652775 380.15753493856437C399.9999543970288 386.0518532839101 399.9999543970289 499.4041291559437 460.45450152878016 503.4848110873369C520.9090486605313 507.5654930187301 520.9090486605314 411.44276307924565 581.3635957922826 396.4802626641372C641.8181429240339 381.51776224902875 641.8181429240337 456.78367342805905 702.272690055785 443.6348094269032C762.7272371875363 430.4859454257473 762.7272371875363 327.56207893394077 823.1817843192875 343.88480665951363C883.6363314510388 360.20753438508643 883.6363314510388 507.11208391524195 944.0908785827901 508.9257203291945C1004.5454257145414 510.739356743147 1034.7726992804169 390.58594431879146 1064.9999728462924 351.1393523153238 " transform="rotate(45, 400, 400)"></path><path d="M-231.75006428285064 481.08102307454203C-203.0341543952688 434.9919877049732 -174.31824450768696 303.6166999692863 -116.8864247325233 296.72488159626664C-59.45460495735961 289.833063223247 -59.454604957359635 444.4682379678752 -2.022785182195946 453.51374958246345C55.40903459296777 462.5592611970518 55.40903459296777 327.3073256265413 112.84085436813143 332.90692805461975C170.2726741432951 338.5065304826982 170.27267414329515 463.8514771419929 227.70449391845887 475.9121592947773C285.13631369362247 487.9728414475617 285.13631369362247 375.55005423767875 342.5681334687861 381.1496566657572C399.9999532439498 386.7492590938357 399.9999532439498 494.43392117226756 457.4317730191135 498.3105690070911C514.8635927942771 502.18721684191473 514.8635927942773 410.87062339940445 572.2954125694409 396.65624800505145C629.7272323446045 382.4418726106984 629.7272323446044 453.9444882307772 687.1590521197681 441.4530674296791C744.590871894932 428.961646628581 744.590871894932 331.1839734613648 802.0226916700956 346.69056480065905C859.4545114452594 362.1971561399532 859.4545114452592 501.75647819360097 916.886331220423 503.47943278685585C974.3181509955866 505.2023873801108 1003.0340608831686 391.056645576973 1031.7499707707502 353.58238317367864 " transform="rotate(42.75, 400, 400)"></path><path d="M-198.50006451346644 476.8136030159698C-171.2955183041784 433.15030635006246 -144.09097209489033 308.6895074425696 -89.68187967631422 302.16041635234046C-35.27278725773806 295.6313252621114 -35.272787257738116 442.12780659912755 19.136305160837992 450.6972386550533C73.5453975794141 459.26667071097904 73.5453975794141 331.13325806523227 127.95448999799027 336.43814457604344C182.36358241656637 341.7430310868546 182.36358241656643 460.49087529039696 236.77267483514254 471.916784698298C291.1817672537186 483.34269410619896 291.1817672537186 376.8368956968362 345.59085967229476 382.14178220764734C399.9999520908708 387.44666871845857 399.9999520908709 489.46371700328876 454.40904450944697 493.1363307415427C508.818136928023 496.80894447979654 508.81813692802314 410.2984875342605 563.2272293465992 396.83223716066294C617.6363217651755 383.36598678706537 617.6363217651752 451.10530684819264 672.0454141837514 439.27132924715227C726.4545066023276 427.437351646112 726.4545066023276 334.8058718034862 780.8635990209038 349.49632675650173C835.27269143948 364.1867817095173 835.2726914394798 496.4008762866572 889.681783858056 498.03314905921445C944.0908762766321 499.6654218317718 971.29542248592 391.52735064985177 998.499968695208 356.0254178467308 " transform="rotate(40.5, 400, 400)"></path><path d="M-165.25006474408224 472.5461829573976C-139.55688221308796 431.3086249951518 -113.86369968209368 313.762314915853 -62.477334620105125 307.59595110841434C-11.09096955811657 301.4295873009757 -11.090969558116598 439.7873752303799 40.29539550387199 447.8807277276431C91.68176056586054 455.9740802249063 91.68176056586054 334.95919050392325 143.0681256278491 339.96936109746713C194.45449068983766 344.979531691011 194.4544906898377 457.13027343880105 245.8408557518262 467.92141010181865C297.2272208138147 478.71254676483625 297.2272208138147 378.12373715599364 348.6135858758033 383.1339077495375C399.9999509377918 388.1440783430814 399.99995093779194 484.49351283430997 451.38631599978044 487.96209247599415C502.77268106176894 491.4306721176784 502.77268106176905 409.7263516691166 554.1590461237575 397.00822631627443C605.5454111857462 384.2901009634323 605.545411185746 448.266125465608 656.9317762477347 437.0895910646255C708.3181413097233 425.913056663643 708.3181413097233 338.4277701456075 759.7045063717119 352.30208871234436C811.0908714337006 366.1764072790813 811.0908714337002 491.04527437971353 862.4772364956889 492.5868653315731C913.8636015576776 494.1284562834328 939.5567840886717 391.99805572273056 965.2499666196659 358.468452519783 " transform="rotate(38.25, 400, 400)"></path><path d="M-132.0000573453035 468.27875526943086C-107.81823849260302 429.46693601084655 -83.6364196399025 318.83511475974177 -35.27278193450152 313.0314782350937C13.09085577089948 307.22784171044555 13.090855770899452 437.4469362322377 61.454493476300456 445.06420917083835C109.81813118170146 452.68148210943906 109.81813118170146 338.7851153132197 158.18176888710246 343.5005699894963C206.5454065925034 348.2160246657729 206.54540659250353 453.76966395781056 254.90904429790447 463.9260278759448C303.2726820033055 474.082391794079 303.2726820033055 379.4105709857565 351.6363197087064 384.12602566203316C399.99995741410737 388.84148033830974 399.99995741410737 479.5233010359366 448.36359511950843 482.78784658105116C496.7272328249094 486.0523921261657 496.7272328249095 409.1542081745781 545.0908705303104 397.1842078424914C593.4545082357114 385.21420751040466 593.4545082357113 445.42693645362885 641.8181459411123 434.9078452527042C690.1817836465135 424.3887540517795 690.1817836465135 342.0496608583343 738.5454213519145 355.1078430387925C786.9090590573155 368.1660252192508 786.9090590573153 485.6896648433752 835.2726967627164 487.14057397453723C883.6363344681174 488.5914831056993 907.8181533208178 392.4687531662148 931.9999721735182 360.91147956344065 " transform="rotate(36, 400, 400)"></path><path d="M-98.75002705834119 464.0113313961614C-76.07957188393446 427.6252508412386 -53.40911670952774 323.9079184183279 -8.068206360714328 318.46700917647024C37.272703988099124 313.02609993461266 37.272703988099096 435.10650104879284 82.61361433691252 442.24769442873094C127.95452468572597 449.38888780866904 127.95452468572597 342.6110439372134 173.29543503453942 347.0317826962227C218.63634538335282 351.45252145523204 218.63634538335293 450.40905829151734 263.9772557321663 459.9306494647682C309.31816608097967 469.452240638019 309.31816608097967 380.6974086302167 354.6590764297931 385.118147389226C399.9999867786066 389.5388861482353 399.9999867786066 474.5530930522605 445.34089712742 477.6136045008054C490.6818074762334 480.6741159493503 490.68180747623353 408.582068494737 536.0227178250469 397.3601931834056C581.3636281738603 386.1383178720743 581.3636281738602 442.587751256347 626.7045385226737 432.7261032554801C672.0454488714871 422.8644552546132 672.0454488714871 345.6715553857583 717.3863592203007 357.9136011799379C762.7272695691141 370.1556469741176 762.727269569114 480.3340591217342 808.0681799179274 481.6942864321986C853.409090266741 483.054513742663 876.0795454411477 392.93945442439633 898.7500006155542 363.35451042179557 " transform="rotate(33.75, 400, 400)"></path><path d="M-65.49999677137886 459.7439151522864C-44.34090527526591 425.78357330102517 -23.181813779152975 328.98072970630847 19.136369213072896 323.9025477472414C61.45455220529877 318.8243657881743 61.45455220529874 432.76607349474244 103.77273519752461 439.431187316018C146.09091818975048 446.09630113729355 146.09091818975048 346.4369801906017 188.40910118197638 350.56300303234366C230.72728417420223 354.6890258740857 230.72728417420228 447.04846025461865 273.0454671664281 455.9352786829861C315.36365015865397 464.8220971113535 315.36365015865397 381.98425390407135 357.6818331508798 386.1102767458134C400.00001614310565 390.23629958755544 400.00001614310577 469.5828926979789 442.3181991353316 472.43937004995416C484.63638212755745 475.29584740192945 484.63638212755757 408.0099364442903 526.9545651197834 397.5361861537144C569.2727481120093 387.0624358631385 569.2727481120091 439.7485736884597 611.590931104235 430.54436888765053C653.9091140964609 421.3401640868414 653.9091140964609 349.2934575425769 696.2272970886869 360.7193669504779C738.5454800809129 372.14527635837885 738.5454800809126 474.97846102948773 780.8636630731386 476.2480065192545C823.1818460653645 477.5175520090213 844.3409375614774 393.4101633119724 865.5000290575903 365.79754890954496 " transform="rotate(31.5, 400, 400)"></path><path d="M-32.24999700199466 455.4764950937142C-12.602269184175498 423.9418919461145 7.045458633643662 334.05353717959184 46.34091426928197 329.33808250331526C85.63636990492029 324.6226278270386 85.63636990492026 430.4256421259948 124.93182554055858 436.6146763886078C164.22728117619693 442.80371065122085 164.22728117619693 350.26291262929266 203.52273681183522 354.09421955376735C242.8181924474735 357.9255264782421 242.81819244747356 443.6878584030227 282.1136480831118 451.9399040865068C321.4091037187501 460.1919497699908 321.4091037187501 383.2710953632288 360.70455935438844 387.10240228770357C400.00001499002667 390.93370921217826 400.0000149900267 464.61268852900014 439.2954706256651 467.2651317844057C478.59092626130337 469.91757503981125 478.59092626130337 407.43780057914637 517.8863818969417 397.7121753093259C557.18183753258 387.9865500395054 557.18183753258 436.9093923058751 596.4772931682182 428.36263070512376C635.7727488038565 419.81586910437244 635.7727488038565 352.9153558846982 675.0682044394949 363.52512890632056C714.3636600751333 374.1349019279429 714.3636600751332 469.622859122544 753.6591157107716 470.8017227916131C792.9545713464098 471.9805864606823 812.6022991642291 393.88086838485117 832.2500269820481 368.24058358259714 " transform="rotate(29.25, 400, 400)"></path><path d="M1.000002767389546 451.2090674057474C19.13636690691493 422.1002029618092 37.2727310464403 339.1263370234807 73.54545932549104 334.77360962999455C109.8181876045418 330.4208822365085 109.81818760454178 428.0852031278526 146.09091588359252 433.7981578318031C182.36364416264328 439.51111253575357 182.36364416264328 354.0888374385891 218.63637244169405 357.62542844579656C254.90910072074473 361.162019453004 254.90910072074485 440.32724892203225 291.1818289997955 447.9445218606329C327.45455727884627 455.56179479923355 327.45455727884627 384.5579291929917 363.727285557897 388.09452020019916C400.00001383694774 391.6311112074066 400.0000138369478 459.64247673062675 436.2727421159985 462.0908858894627C472.5454703950493 464.5392950482986 472.5454703950493 406.8656570846079 508.81819867410013 397.8881568355429C545.0909269531508 388.9106565864778 545.0909269531506 434.070203293896 581.3636552322015 426.18088489320246C617.6363835112522 418.2915664925089 617.6363835112522 356.537246597425 653.9091117903031 366.3308832327687C690.1818400693538 376.12451986811243 690.1818400693537 464.2672495862057 726.4545683484045 465.3554314345772C762.7272966274553 466.4436132829487 780.8636607669805 394.3515658283354 799.0000249065059 370.6836106262548 " transform="rotate(27, 400, 400)"></path><path d="M34.25000253677376 446.94164734717526C50.87500299800536 420.2585216068985 67.50000345923695 344.199144496764 100.75000438170014 340.20914438606843C134.00000530416332 336.21914427537286 134.00000530416327 425.74477175910494 167.25000622662648 430.9816469043929C200.50000714908967 436.21852204968087 200.50000714908967 357.9147698772801 233.75000807155288 361.15664496722025C267.00000899401607 364.3985200571604 267.00000899401607 436.9666470704363 300.25000991647926 443.94914726415357C333.50001083894244 450.9316474578708 333.50001083894244 385.8447706521491 366.7500117614056 389.08664574208933C400.00001268386876 392.3285208320295 400.0000126838688 454.6722725616479 433.25001360633195 456.9166476239142C466.50001452879513 459.16102268618044 466.5000145287952 406.29352121946397 499.7500154512584 398.06414599115436C533.0000163737216 389.8347707628447 533.0000163737215 431.23102191131136 566.2500172961846 423.99914671067563C599.5000182186479 416.7672715100399 599.5000182186479 360.1591449395463 632.7500191411111 369.1366451886114C666.0000200635743 378.1141454376764 666.0000200635742 458.911647679262 699.2500209860375 459.90914770693587C732.5000219085007 460.9066477346098 749.1250223697323 394.8222709012142 765.7500228309638 373.126645299307 " transform="rotate(24.75, 400, 400)"></path><path d="M67.50000230615797 442.6742234739057C82.61363908909577 418.41683643729056 97.72727587203359 349.27194815535006 127.95454943790921 345.64467532744504C158.1818230037848 342.0174024995399 158.1818230037848 423.40433657566007 188.40909656966045 428.16513216228543C218.63637013553605 432.9259277489109 218.63637013553605 361.74069850127376 248.8636437014117 364.68785767394667C279.0909172672873 367.6350168466195 279.09091726728735 433.60604140414307 309.31819083316293 439.95376885297696C339.54546439903856 446.30149630181086 339.54546439903856 387.13160829660933 369.77273796491414 390.0787674692822C400.0000115307898 393.02592664195504 400.00001153078983 449.70206457797184 430.22728509666547 451.74240554366844C460.45455866254105 453.78274650936504 460.4545586625411 405.7213815396228 490.6818322284167 398.2401313320686C520.9091057942924 390.75888112451435 520.9091057942923 428.3918367140295 551.1363793601679 421.8174047134516C581.3636529260435 415.24297271287367 581.3636529260435 363.78103946697036 611.5909264919192 371.9424033297568C641.8182000577948 380.1037671925432 641.8182000577948 453.556041957621 672.0454736236704 454.46286016459726C702.2727471895461 455.3696783715735 717.3863839724838 395.29297215939573 732.5000207554216 375.5696761576619 " transform="rotate(22.5, 400, 400)"></path><path d="M100.75000207554217 438.40680341533357C114.3522751801862 416.57515508237987 127.95454828483022 354.34475562863344 155.15909449411828 351.08021008351886C182.36364070340636 347.8156645384043 182.36364070340633 421.0639052069124 209.5681869126944 425.3486212348753C236.77273312198244 429.63333726283815 236.77273312198244 365.56663093996474 263.97727933127055 368.21907419537035C291.1818255405586 370.87151745077597 291.18182554055863 430.2454395525471 318.38637174984666 435.9583942564976C345.5909179591347 441.6713489604481 345.5909179591347 388.41844975576674 372.79546416842277 391.0708930111723C400.0000103777108 393.7233362665779 400.00001037771085 444.73186040899304 427.2045565869989 446.56816727812C454.4091027962869 448.4044741472469 454.40910279628696 405.1492456744789 481.613649005575 398.4161204876801C508.8181952148631 391.6829953008813 508.818195214863 425.55265533144495 536.022741424151 419.63566653092477C563.2272876334391 413.71867773040464 563.2272876334391 367.4029378090917 590.4318338427273 374.7481652855995C617.6363800520154 382.09339276210727 617.6363800520153 448.20044005067723 644.8409262613034 449.01657643695586C672.0454724705914 449.83271282323454 685.6477455752354 395.7636772322745 699.2500186798794 378.01271083071407 " transform="rotate(20.25, 400, 400)"></path><path d="M134.00000184492637 434.13937954206403C146.09091127127664 414.7334699127719 158.18182069762688 359.41755928721955 182.36363955032738 356.5157410248955C206.54545840302785 353.6139227625714 206.54545840302785 418.7234700234675 230.72727725572835 422.5321064927678C254.90909610842886 426.34074296206813 254.90909610842886 369.39255956395846 279.09091496112933 371.7502869020968C303.27273381382986 374.1080142402351 303.27273381382986 426.8848338862539 327.4545526665304 431.963015845321C351.63637151923086 437.04119780438816 351.63637151923086 389.7052874002269 375.81819037193134 392.0630147383652C400.0000092246318 394.42074207650353 400.0000092246318 439.7616524253169 424.18182807733234 441.3939251978742C448.3636469300328 443.0261979704315 448.36364693003287 404.5771059946377 472.54546578273334 398.59210582859436C496.7272846354338 392.60710566255096 496.72728463543376 422.71347013416306 520.9091034881343 417.45392453370073C545.0909223408348 412.19437893323834 545.0909223408348 371.0248323365158 569.2727411935354 377.5539234267449C593.4545600462359 384.083014516974 593.4545600462358 442.84483432903625 617.6363788989363 443.57028889461725C641.8181977516368 444.2957434601983 653.909107177987 396.23437849045604 666.0000166043372 380.455741689069 " transform="rotate(18, 400, 400)"></path><path d="M167.24998635552151 429.8719594834918C177.82953210357798 412.8917885578612 188.40907785163444 364.49036676050287 209.56816934774739 361.95127578096935C230.72726084386034 359.4121848014358 230.7272608438603 416.3830386547198 251.88635233997326 419.7155955653576C273.0454438360862 423.04815247599544 273.0454438360862 373.21849200264944 294.20453533219916 375.28150342352046C315.363626828312 377.3445148443915 315.3636268283121 423.524232034658 336.522718324425 427.9676412488417C357.6818098205379 432.4110504630254 357.6818098205379 390.9921288593843 378.84090131665084 393.05514028025533C399.99999281276376 395.11815170112635 399.9999928127638 434.7914482563381 421.15908430887674 436.2196869323257C442.31817580498966 437.64792560831336 442.3181758049897 404.00497012949376 463.47726730110264 398.76809498420585C484.63635879721556 393.5312198389179 484.6363587972155 419.8742887515785 505.79545029332843 415.2721863511739C526.9545417894415 410.67008395076937 526.9545417894415 374.6467306786371 548.1136332855544 380.3596853825876C569.2727247816674 386.07264008653806 569.2727247816672 437.4892324220925 590.4318162777802 438.12400516697585C611.5909077738932 438.7587779118593 622.1704535219496 396.7050835633348 632.7499992700061 382.8987763621211 " transform="rotate(15.75, 400, 400)"></path><path d="M200.49998612490572 425.60453561022234C209.5681681946684 411.05010338825326 218.6363502644311 369.563170419089 236.77271440395646 367.3868067223459C254.90907854348183 365.2104430256029 254.90907854348183 414.0426034712749 273.0454426830072 416.8990808232502C291.18180682253256 419.7555581752254 291.18180682253256 377.04442062664316 309.31817096205793 378.8127161302469C327.4545351015833 380.5810116338506 327.45453510158336 420.16362636836476 345.5908992411087 423.9722628376651C363.7272633806341 427.7808993069654 363.7272633806341 392.27896650384446 381.8636275201594 394.04726200744824C399.99999165968484 395.8155575110519 399.99999165968484 429.821240272662 418.13635579921015 431.04544485208C436.2727199387356 432.2696494314979 436.2727199387356 403.4328304496526 454.409084078261 398.94408032512007C472.5454482177863 394.4553302005875 472.54544821778626 417.0351035542966 490.6818123573117 413.09044435394986C508.81817649683705 409.1457851536031 508.81817649683705 378.26862520606113 526.9545406363625 383.16544352373296C545.0909047758878 388.06226184140485 545.0909047758878 432.1336267004515 563.2272689154131 432.67771762463724C581.3636330549386 433.221808548823 590.4318151247012 397.17578482151634 599.499997194464 385.341807220476 " transform="rotate(13.5, 400, 400)"></path><path d="M233.74998589428992 421.33711173695286C241.30680428575883 409.2084182186453 248.86362267722774 374.63597407767503 263.97725946016556 372.8223376637225C279.0908962431033 371.00870124976996 279.0908962431033 411.70216828783003 294.2045330260412 414.0825660811427C309.31816980897895 416.46296387445545 309.31816980897895 380.8703492506369 324.43180659191677 382.3439288369733C339.5454433748546 383.8175084233098 339.5454433748546 416.80302070207154 354.6590801577924 419.9768844264885C369.7727169407302 423.15074815090543 369.7727169407302 393.56580414830466 384.886353723668 395.0393837346411C399.99999050660585 396.5129633209775 399.99999050660585 424.85103228898595 415.1136272895437 425.8712027718342C430.2272640724815 426.89137325468255 430.2272640724815 402.8606907698114 445.34090085541925 399.1200656660343C460.4545376383571 395.3794405622572 460.45453763835707 414.19591835701476 475.5681744212949 410.90870235672577C490.6818112042327 407.62148635643683 490.6818112042327 381.8905197334852 505.7954479871705 385.97120166487844C520.9090847701084 390.05188359627164 520.9090847701084 426.7780209788105 536.0227215530462 427.23143008229863C551.1363583359839 427.68483918578676 558.6931767274529 397.64648607969787 566.2499951189218 387.78483807883094 " transform="rotate(11.25, 400, 400)"></path><path d="M266.9999856636741 417.069689771032C273.0454403768492 407.366734956386 279.0908950900244 379.7087796436098 291.18180451637465 378.2578705124477C303.27271394272486 376.8069613812857 303.27271394272486 409.36173501173374 315.3636233690751 411.26605324638393C327.4545327954254 413.17037148103407 327.4545327954254 384.69627978197923 339.5454422217756 385.8751434510484C351.63635164812587 387.05400712011755 351.63635164812587 413.44241694312694 363.72726107447613 415.9815079226605C375.81817050082634 418.5205989021941 375.81817050082634 394.85264370011345 387.9090799271766 396.0315073691826C399.99998935352687 397.21037103825176 399.99998935352687 419.88082621265846 412.0908987798771 420.6969625989371C424.18180820622734 421.5130989852157 424.1818082062274 402.28855299731885 436.2727176325776 399.29605291429715C448.3636270589278 396.3035528312755 448.3636270589278 411.35673506708156 460.4545364852781 408.72696226685036C472.54544591162835 406.09718946661917 472.54544591162835 385.5124161682579 484.6363553379786 388.77696171337243C496.7272647643289 392.041507258487 496.7272647643288 421.42241716451815 508.8181741906791 421.78514444730865C520.9090836170294 422.14787173009915 526.9545383302045 398.117189245228 532.9999930433796 390.2278708445345 " transform="rotate(9, 400, 400)"></path><path d="M300.2500006918474 412.80226780511117C304.7840917267287 405.5250516941266 309.31818276161005 384.78158520954446 318.38636483137276 383.69340336117295C327.4545469011355 382.60522151280145 327.4545469011355 407.02130173563745 336.52272897089813 408.4495404116251C345.5909110406608 409.87777908761274 345.5909110406608 388.5222103133216 354.6590931104235 389.40635806512347C363.7272751801862 390.2905058169253 363.7272751801862 410.08181318418235 372.79545724994887 411.98613141883254C381.8636393197116 413.8904496534827 381.8636393197116 396.13948325192223 390.93182138947424 397.0236310037241C400.00000345923695 397.90777875552595 400.00000345923695 414.910620136331 409.0681855289996 415.52272242604C418.1363675987623 416.13482471574895 418.1363675987623 401.7164152248263 427.20454966852503 399.47204016256C436.2727317382877 397.22766510029373 436.2727317382877 408.5175517771483 445.34091380805035 406.5452221769749C454.40909587781306 404.57289257680156 454.40909587781306 389.1343126030306 463.47727794757577 391.5827217618665C472.5454600173384 394.0311309207024 472.5454600173384 416.06681335022574 481.6136420871011 416.3388588123186C490.68182415686385 416.6109042744115 495.2159151917451 398.5878924107582 499.7500062266265 392.67090361023804 " transform="rotate(6.75, 400, 400)"></path><path d="M333.5000004612316 408.534844885516C336.52272781781915 403.68336747819296 339.5454551744067 389.8543898218049 345.59090988758186 389.1289352562239C351.63636460075696 388.4034806906428 351.63636460075696 404.6808675058669 357.6818193139321 405.63302662319194C363.7272740271072 406.58518574051703 363.7272740271072 392.3481398909896 369.77272874028233 392.9375717255242C375.81818345345744 393.5270035600588 375.81818345345744 406.7212084715635 381.8636381666326 407.99075396133026C387.9090928798077 409.260299451097 387.9090928798077 397.42632185005675 393.95454759298286 398.0157536845913C400.00000230615797 398.6051855191259 400.00000230615797 409.94041310632923 406.04545701933307 410.3484812994686C412.0909117325082 410.75654949260786 412.09091173250823 401.14427649865945 418.13636644568334 399.6480264571486C424.18182115885844 398.15177641563776 424.18182115885844 405.6783675335408 430.2272758720336 404.3634811334252C436.2727305852087 403.0485947333096 436.2727305852087 392.75620808412896 442.3181852983838 394.3884808566862C448.36364001155897 396.02075362924353 448.3636400115589 410.7112085822591 454.4090947247341 410.8925722236543C460.45454943790924 411.0739358650496 463.4772767944968 399.058594622614 466.50000415108434 395.1139354222672 " transform="rotate(4.5, 400, 400)"></path><path d="M366.74999641591853 404.26742196592085C368.2613600942123 401.8416832622593 369.7727237725061 394.9271944340653 372.79545112909364 394.56446715127475C375.8181784856812 394.20173986848425 375.8181784856812 402.3404332760963 378.8409058422688 402.81651283475884C381.86363319885635 403.2925923934214 381.86363319885635 396.17406946865765 384.8863605554439 396.46878538592495C387.90908791203145 396.76350130319224 387.90908791203145 403.3606037589446 390.93181526861906 403.99537650382797C393.9545426252066 404.63014924871135 393.9545426252066 398.7131604481912 396.97726998179417 399.0078763654585C399.9999973383817 399.30259228272575 399.9999973383817 404.9702060763275 403.02272469496927 405.1742401728971C406.0454520515568 405.3782742694668 406.0454520515568 400.57213777249257 409.0681794081444 399.82401275173714C412.0909067647319 399.0758877309817 412.0909067647319 402.8391832899332 415.11363412131954 402.18174008987546C418.1363614779071 401.5242968898176 418.1363614779071 396.3781035652273 421.15908883449464 397.19423995150595C424.18181619108225 398.0103763377846 424.1818161910822 405.35560381429235 427.2045435476698 405.44628563499C430.22727090425735 405.53696745568766 431.73863458255113 399.52929683446985 433.2499982608449 397.55696723429645 " transform="rotate(2.25, 400, 400)"></path></g></svg>